<svg xmlns="http://www.w3.org/2000/svg" viewBox="513.834 343.611 75.47 84">
  <g id="beer-2" transform="translate(487.839 343.611)">
    <g id="Group_1498" data-name="Group 1498" transform="translate(25.995 15.634)">
      <g id="Group_1497" data-name="Group 1497" transform="translate(0)">
        <path id="Path_1824" data-name="Path 1824" d="M59.176,97.509l-7.9-2.118a2.954,2.954,0,0,0-2.529.5,2.4,2.4,0,0,0-.931,1.627l-.876,3.268a2.44,2.44,0,0,0,0,1.91,2.8,2.8,0,0,0,.332.586c-.837,1.742-1.791,3.89-2.792,6.281l0,.008c-.875,2.088-1.785,4.359-2.684,6.7-3.065.831-6.973,4.419-8.111,8.661l-7.524,28.079a5.285,5.285,0,0,0,3.963,6.315l7.7,2.064h0l7.7,2.064a5.851,5.851,0,0,0,1.514.2,5.56,5.56,0,0,0,2.522-.6,4.865,4.865,0,0,0,2.554-3.09l1.035-3.862v0h0l6.488-24.213c1.137-4.243-.454-9.3-2.693-11.556.564-3.551,1.033-6.983,1.364-9.947,0-.009,0-.017,0-.026.166-1.485.3-2.851.388-4.056a2.827,2.827,0,0,0,1.494-1.809l.957-3.57A2.8,2.8,0,0,0,59.176,97.509ZM48.945,159.123a1.627,1.627,0,0,1-.871,1.014,2.385,2.385,0,0,1-1.7.154l-7.7-2.064h0l-7.7-2.064a2.044,2.044,0,0,1-1.643-2.3l.611-2.28,19.618,5.257Zm1.46-5.449-19.619-5.257,5.639-21.045,19.618,5.257Zm6.316-24.261-19.274-5.165c1.423-2.808,4.309-4.84,5.585-4.872a1.641,1.641,0,0,0,1.493-1.058c.853-2.248,1.719-4.438,2.558-6.471h7.753c-.27,2.2-.607,4.611-.993,7.1l-.4-.107a1.641,1.641,0,0,0-.849,3.169l1.883.5C55.544,123.366,56.885,126.416,56.721,129.413Zm.4-26.137-.039,0-.036,0q-.06,0-.119.011l-.041.006c-.039.006-.078.014-.116.023l-.034.008c-.047.012-.094.026-.139.042l-.044.017c-.031.012-.061.024-.091.038l-.055.027-.076.041-.052.031c-.026.016-.051.033-.076.051l-.043.031c-.033.025-.065.051-.1.079l-.015.012c-.037.033-.072.068-.106.1l-.02.023c-.026.029-.051.058-.074.089l-.028.038q-.029.04-.056.082l-.029.047c-.015.026-.03.053-.044.08s-.019.036-.028.055-.023.053-.034.08-.017.039-.024.06c-.014.04-.027.08-.039.122s-.025.1-.034.15c0,.011,0,.021-.007.032s0,.014,0,.021c-.007.05-.013.1-.016.148-.06,1.074-.163,2.336-.3,3.737H48.47c.848-1.949,1.638-3.657,2.318-5,.021-.043.041-.087.059-.132l.01-.024c0-.009.006-.018.009-.027.018-.05.034-.1.047-.151s.02-.083.027-.125c0-.02.006-.041.008-.061s.008-.06.011-.09,0-.038,0-.058,0-.064,0-.1,0-.034,0-.051c0-.035,0-.071-.008-.105,0-.014,0-.027,0-.041-.006-.042-.013-.083-.022-.125l0-.02q-.017-.074-.041-.147l0-.009c-.014-.043-.031-.085-.048-.126l-.021-.045c-.013-.029-.027-.057-.042-.085l-.029-.052c-.014-.025-.03-.049-.045-.073l-.035-.052c-.018-.025-.037-.05-.057-.074s-.021-.028-.032-.041c-.031-.036-.063-.071-.1-.1l-.032-.029c-.027-.025-.054-.049-.082-.072l-.037-.029c-.03-.023-.06-.044-.092-.065l-.034-.022-.031-.02.731-2.724,6.958,1.864Z" transform="translate(-25.995 -95.295)"/>
      </g>
    </g>
    <g id="Group_1500" data-name="Group 1500" transform="translate(46.665 37.859)">
      <g id="Group_1499" data-name="Group 1499" transform="translate(0)">
        <path id="Path_1825" data-name="Path 1825" d="M154.086,230.829l-.038-.01a1.641,1.641,0,1,0-.846,3.17l.038.01a1.641,1.641,0,0,0,.846-3.171Z" transform="translate(-151.983 -230.763)"/>
      </g>
    </g>
    <g id="Group_1502" data-name="Group 1502" transform="translate(37.227 54.675)">
      <g id="Group_1501" data-name="Group 1501" transform="translate(0)">
        <path id="Path_1826" data-name="Path 1826" d="M106,336.355a6.187,6.187,0,1,0,.618,4.694A6.145,6.145,0,0,0,106,336.355Zm-2.551,3.845a2.9,2.9,0,1,1-.29-2.2A2.907,2.907,0,0,1,103.447,340.2Z" transform="translate(-94.453 -333.261)"/>
      </g>
    </g>
    <g id="Group_1504" data-name="Group 1504" transform="translate(66.213 15.634)">
      <g id="Group_1503" data-name="Group 1503">
        <path id="Path_1827" data-name="Path 1827" d="M306.222,153.017,298.7,124.938c-1.137-4.243-5.045-7.83-8.11-8.661-.9-2.345-1.809-4.617-2.684-6.7l0-.008c-1-2.39-1.955-4.539-2.792-6.28a2.809,2.809,0,0,0,.332-.586,2.44,2.44,0,0,0,0-1.91l-.876-3.268a2.4,2.4,0,0,0-.931-1.627,2.954,2.954,0,0,0-2.529-.5l-7.9,2.118a2.8,2.8,0,0,0-1.974,3.419l.957,3.571a2.826,2.826,0,0,0,1.494,1.809c.091,1.2.221,2.57.387,4.054,0,.01,0,.021,0,.032.331,2.963.8,6.394,1.364,9.944-2.238,2.253-3.83,7.314-2.693,11.556l7.524,28.079a4.865,4.865,0,0,0,2.554,3.09,5.557,5.557,0,0,0,2.522.6,5.845,5.845,0,0,0,1.514-.2l15.4-4.128a5.659,5.659,0,0,0,3.3-2.362A4.864,4.864,0,0,0,306.222,153.017ZM275.5,103.3l-.074-.01-.085-.008-.058,0-.031,0-.73-2.725,6.958-1.864.73,2.724-.031.02-.035.022q-.047.031-.091.065l-.038.029c-.028.023-.055.047-.081.071l-.033.03c-.034.033-.066.068-.1.1-.012.014-.023.029-.034.043s-.038.047-.055.072-.024.035-.036.053-.03.047-.044.071l-.03.053c-.015.027-.028.055-.041.083s-.015.031-.021.046c-.017.04-.033.082-.047.123l0,.011c-.016.048-.029.1-.04.146l0,.023c-.009.04-.016.081-.022.122,0,.014,0,.028,0,.042,0,.035-.007.069-.008.1,0,.017,0,.034,0,.052s0,.063,0,.1,0,.039,0,.058.007.06.011.09,0,.041.009.061q.012.065.029.131c.012.046.027.091.043.136,0,.012.007.025.012.037l.007.015c.019.049.04.1.063.142.68,1.346,1.47,3.053,2.318,5h-6.734c-.142-1.4-.245-2.663-.305-3.737,0-.05-.009-.1-.016-.15,0-.007,0-.013,0-.02s0-.022-.007-.032c-.009-.048-.019-.1-.031-.143s-.026-.087-.041-.129c-.007-.019-.015-.037-.023-.055s-.024-.057-.037-.085l-.026-.051c-.015-.028-.03-.056-.046-.084l-.028-.045q-.028-.043-.058-.084l-.027-.037c-.023-.03-.048-.059-.073-.087l-.023-.026c-.033-.035-.067-.069-.1-.1l-.038-.032c-.023-.02-.046-.039-.071-.057s-.042-.03-.063-.044l-.052-.034-.075-.045-.043-.023c-.029-.015-.058-.03-.087-.043l-.027-.011a1.61,1.61,0,0,0-.311-.1Zm2.4,19.212,1.883-.5a1.641,1.641,0,0,0-.849-3.169l-.4.107c-.386-2.488-.722-4.9-.993-7.1H285.3c.839,2.033,1.705,4.223,2.558,6.471a1.641,1.641,0,0,0,1.493,1.058c1.275.032,4.162,2.064,5.585,4.873l-19.274,5.165C275.494,126.416,276.835,123.366,277.9,122.512Zm4.07,31.163-5.639-21.046,19.618-5.257,5.639,21.046Zm20.832,1.505a2.386,2.386,0,0,1-1.4.983l-15.4,4.128a2.385,2.385,0,0,1-1.7-.154,1.626,1.626,0,0,1-.871-1.014l-.611-2.279,19.618-5.257.611,2.28A1.627,1.627,0,0,1,302.806,155.179Z" transform="translate(-271.133 -95.295)"/>
      </g>
    </g>
    <g id="Group_1506" data-name="Group 1506" transform="translate(77.474 37.859)">
      <g id="Group_1505" data-name="Group 1505">
        <path id="Path_1828" data-name="Path 1828" d="M343.035,231.978a1.64,1.64,0,0,0-2.009-1.16l-.038.01a1.641,1.641,0,1,0,.849,3.169l.038-.01A1.64,1.64,0,0,0,343.035,231.978Z" transform="translate(-339.771 -230.762)"/>
      </g>
    </g>
    <g id="Group_1508" data-name="Group 1508" transform="translate(77.856 54.675)">
      <g id="Group_1507" data-name="Group 1507" transform="translate(0)">
        <path id="Path_1829" data-name="Path 1829" d="M354.261,337.846a6.186,6.186,0,1,0-5.978,7.788h0a6.187,6.187,0,0,0,5.978-7.788ZM350.8,340.9a2.886,2.886,0,0,1-1.764,1.353,2.917,2.917,0,0,1-.755.1h0A2.906,2.906,0,1,1,350.8,340.9Z" transform="translate(-342.098 -333.26)"/>
      </g>
    </g>
    <g id="Group_1510" data-name="Group 1510" transform="translate(62.089)">
      <g id="Group_1509" data-name="Group 1509" transform="translate(0)">
        <path id="Path_1830" data-name="Path 1830" d="M247.637,0A1.641,1.641,0,0,0,246,1.641V6.032a1.641,1.641,0,1,0,3.281,0V1.641A1.641,1.641,0,0,0,247.637,0Z" transform="translate(-245.996)"/>
      </g>
    </g>
    <g id="Group_1512" data-name="Group 1512" transform="translate(52.956 3.621)">
      <g id="Group_1511" data-name="Group 1511" transform="translate(0)">
        <path id="Path_1831" data-name="Path 1831" d="M195.616,26.686l-2.231-3.8a1.641,1.641,0,1,0-2.83,1.66l2.231,3.8a1.641,1.641,0,0,0,2.83-1.66Z" transform="translate(-190.329 -22.073)"/>
      </g>
    </g>
    <g id="Group_1514" data-name="Group 1514" transform="translate(68.991 3.621)">
      <g id="Group_1513" data-name="Group 1513">
        <path id="Path_1832" data-name="Path 1832" d="M292.767,22.3a1.641,1.641,0,0,0-2.245.585l-2.231,3.8a1.641,1.641,0,1,0,2.83,1.66l2.231-3.8A1.641,1.641,0,0,0,292.767,22.3Z" transform="translate(-288.065 -22.073)"/>
      </g>
    </g>
  </g>
</svg>
