<svg xmlns="http://www.w3.org/2000/svg" viewBox="259.557 211.336 41.442 84">
  <g id="beer" transform="translate(146.759 211.336)">
    <g id="Group_1517" data-name="Group 1517" transform="translate(112.798)">
      <g id="Group_1516" data-name="Group 1516" transform="translate(0)">
        <path id="Path_1840" data-name="Path 1840" d="M151.283,18.548h-.408V16.782a3.018,3.018,0,0,0-3.018-3.018h-8v-.091l1.509-10.142V3.245A3.169,3.169,0,0,0,138.348,0H127.784a3.169,3.169,0,0,0-3.018,3.245l1.509,10.368q0,.045,0,.091h-7.636a3.018,3.018,0,0,0-3.018,3.018v1.8a3.018,3.018,0,0,0-2.822,3.018V76.167a3.018,3.018,0,0,0,2.822,3.018.905.905,0,0,0,0,.091v1.705A3.018,3.018,0,0,0,118.638,84h29.172a3.018,3.018,0,0,0,3.018-3.018V79.307h.392a3.018,3.018,0,0,0,3.018-3.018V21.626A3.018,3.018,0,0,0,151.283,18.548ZM127.769,3.018h10.564a.256.256,0,0,1,.075.151L136.9,13.25v.226a.287.287,0,0,1-.075.226h-7.47a.272.272,0,0,1-.075-.226L127.769,3.169A.531.531,0,0,1,127.769,3.018Zm-9.055,13.7h29.232v1.705H118.714ZM115.8,21.566h35.511l.106,19.347h-6.489a13.884,13.884,0,0,0-22.773,0H115.8V21.566Zm-.015,22.366h8.029l.438-.724a10.881,10.881,0,0,1,18.578,0l.438.724h8.059l.091,9.93h-8.134l-.438.724a10.881,10.881,0,0,1-18.578,0l-.438-.724h-8.044Zm32.16,37.08H118.714V79.246h29.232Zm3.471-4.844H115.907V56.88h6.384a13.884,13.884,0,0,0,22.773,0h6.4Z" transform="translate(-112.798)"/>
      </g>
    </g>
    <g id="Group_1519" data-name="Group 1519" transform="translate(130.787 6.082)">
      <g id="Group_1518" data-name="Group 1518" transform="translate(0)">
        <circle id="Ellipse_242" data-name="Ellipse 242" cx="2.279" cy="2.279" r="2.279"/>
      </g>
    </g>
  </g>
</svg>
