<svg xmlns="http://www.w3.org/2000/svg" viewBox="650.386 333.434 84 67.173">
  <g id="birthday-cake" transform="translate(650.386 282.151)">
    <g id="Group_1492" data-name="Group 1492" transform="translate(6.71 51.283)">
      <g id="Group_1491" data-name="Group 1491">
        <path id="Path_1820" data-name="Path 1820" d="M104.1,70.376h-12.8V57.09a2.461,2.461,0,0,0-2.461-2.461H87.138v-.885a2.461,2.461,0,0,0-4.922,0v.885H80.521A2.461,2.461,0,0,0,78.06,57.09V70.376H74.317V57.09a2.461,2.461,0,0,0-2.461-2.461H70.162v-.885a2.461,2.461,0,0,0-4.922,0v.885H63.546a2.461,2.461,0,0,0-2.461,2.461V70.376h-12.8A7.391,7.391,0,0,0,40.9,77.759v7.219l1.965-1.388a9.205,9.205,0,0,1,10.6,0l1.7,1.2a4.275,4.275,0,0,0,4.924,0l1.7-1.2a9.205,9.205,0,0,1,10.6,0l1.7,1.2a4.275,4.275,0,0,0,4.924,0l1.7-1.2a9.205,9.205,0,0,1,10.6,0l1.7,1.2a4.275,4.275,0,0,0,4.924,0l1.7-1.2a9.205,9.205,0,0,1,10.6,0l1.212.856V77.759A7.391,7.391,0,0,0,104.1,70.376Z" transform="translate(-40.899 -51.283)"/>
      </g>
    </g>
    <g id="Group_1494" data-name="Group 1494" transform="translate(6.71 86.83)">
      <g id="Group_1493" data-name="Group 1493" transform="translate(0 0)">
        <path id="Path_1821" data-name="Path 1821" d="M107.428,268.728a4.275,4.275,0,0,0-4.924,0l-1.7,1.2a9.205,9.205,0,0,1-10.6,0l-1.7-1.2a4.275,4.275,0,0,0-4.924,0l-1.7,1.2a9.205,9.205,0,0,1-10.6,0l-1.7-1.2a4.275,4.275,0,0,0-4.924,0l-1.7,1.2a9.205,9.205,0,0,1-10.6,0l-1.7-1.2a4.276,4.276,0,0,0-4.924,0l-4.8,3.394v6.652h70.58V271.59Z" transform="translate(-40.9 -267.948)"/>
      </g>
    </g>
    <g id="Group_1496" data-name="Group 1496" transform="translate(0 102.578)">
      <g id="Group_1495" data-name="Group 1495" transform="translate(0 0)">
        <path id="Path_1822" data-name="Path 1822" d="M79.078,363.938H4.922A4.927,4.927,0,0,0,0,368.86v6.034a4.927,4.927,0,0,0,4.922,4.922H79.078A4.927,4.927,0,0,0,84,374.894V368.86A4.927,4.927,0,0,0,79.078,363.938Z" transform="translate(0 -363.938)"/>
      </g>
    </g>
  </g>
</svg>
