<svg xmlns="http://www.w3.org/2000/svg" viewBox="392.027 343.927 72.557 84">
  <defs>
    <style>
      .cls-1 {
        fill: #050505;
        fill-rule: evenodd;
      }
    </style>
  </defs>
  <path id="box" class="cls-1" d="M8.137,18.927l8.476,4.747L44.755,9.095,37.3,5.365,8.137,18.927ZM46.45,73.175,65.437,63a3.228,3.228,0,0,0,.678-2.373V43.339c0-1.7-1.356-2.373-3.051-1.356l-15.257,7.8a5.224,5.224,0,0,0-3.051,4.408V71.141c0,1.356.678,2.034,1.7,2.034ZM70.862,16.554a2.55,2.55,0,0,1,1.7,2.373V63.343h0A2.56,2.56,0,0,1,71.2,65.716L37.635,84.025h0L4.069,65.716C.339,65.038,0,64.021,0,63.343H0V18.927a2.55,2.55,0,0,1,1.7-2.373L36.279.279h0a2.867,2.867,0,0,1,2.373,0l32.21,16.274ZM5.086,23.335,13.9,28.082v8.476l6.442,3.051V31.472l13.223,7.12V77.244l-28.48-15.6V23.335Zm18.309,3.73,28.48-14.579L64.42,18.927,36.279,34.184l-12.884-7.12Zm37.3,19.665v5.764c0,2.712-2.034,6.1-4.747,7.8V64.36A19.114,19.114,0,0,1,60.012,63V64.36c-3.391,1.7-6.442,3.391-9.832,5.086V68.09a28.282,28.282,0,0,1,4.069-2.712V60.97c-2.712,1.017-4.747-.339-4.747-3.051V52.154l3.051-1.7c-.339,1.356-.678,4.408-.678,4.408l3.391-1.017v5.425l2.373-6.781-2.373-.339,1.7-3.73Z" transform="translate(392.027 343.902)"/>
</svg>
