<svg id="cheese" xmlns="http://www.w3.org/2000/svg" viewBox="671 482 84 73.521">
  <path id="Path_1873" data-name="Path 1873" d="M81.368,65.458l2.632.07V47.833l-57.623-15.9-1.95.487A43.316,43.316,0,0,0,.5,48.22l-.5.659v56.578H32.268l-.055-2.514,0-.093a3.664,3.664,0,0,1,7.328,0l-.053,2.608H84V72.716l-2.526.067-.1,0a3.664,3.664,0,0,1-.007-7.328ZM70.263,49.149H40.148a23.071,23.071,0,0,1,10.2-5.492ZM25.621,37.2l.694-.174,16.142,4.453a27.966,27.966,0,0,0-8.47,7.087l-.467.584H6.09A38.4,38.4,0,0,1,25.621,37.2ZM10.563,100.536H4.922V54.071h5.641ZM79.078,77.4v23.14H44.14a8.587,8.587,0,0,0-16.53,0H15.485V54.071H79.078v6.777a8.587,8.587,0,0,0,0,16.548Z" transform="translate(671 450.063)"/>
  <path id="Path_1874" data-name="Path 1874" d="M154.461,209.254a9.461,9.461,0,1,0,9.461,9.461A9.472,9.472,0,0,0,154.461,209.254Zm0,14A4.539,4.539,0,1,1,159,218.715,4.544,4.544,0,0,1,154.461,223.254Z" transform="translate(549.789 301.837)"/>
  <path id="Path_1875" data-name="Path 1875" d="M312.711,305.254a7.711,7.711,0,1,0,7.711,7.711A7.72,7.72,0,0,0,312.711,305.254Zm0,10.5a2.789,2.789,0,1,1,2.789-2.789A2.792,2.792,0,0,1,312.711,315.754Z" transform="translate(416.039 221.587)"/>
</svg>
