<svg xmlns="http://www.w3.org/2000/svg" viewBox="1128.991 500.395 64.078 84">
  <g id="chips" transform="translate(1128.995 500.395)">
    <g id="Group_1536" data-name="Group 1536" transform="translate(-0.004)">
      <path id="Path_1859" data-name="Path 1859" d="M62.361,0c1.77,1.033,2.147,2.262,1.229,4.114q-1.918,3.86-3.852,7.687a1.754,1.754,0,0,0-.131,1.41,92.319,92.319,0,0,1,3.229,13.932,100.054,100.054,0,0,1,1.082,12.538,96.946,96.946,0,0,1-1.049,16.882A90.372,90.372,0,0,1,59.64,70.494a2.007,2.007,0,0,0,.148,1.7c1.328,2.573,2.606,5.163,3.884,7.769a2.662,2.662,0,0,1-.508,3.426,2.588,2.588,0,0,1-1.754.557c-3.327-.016-6.671,0-10,0-16.1,0-32.174-.049-48.269.049-2.491.033-3.9-1.967-2.622-4.327,1.344-2.459,2.524-5.032,3.8-7.523a1.85,1.85,0,0,0,.131-1.475A93.462,93.462,0,0,1,1.242,56.808,98.577,98.577,0,0,1,.16,44.188a97.514,97.514,0,0,1,1.033-16.8A90.326,90.326,0,0,1,4.405,13.456a2.141,2.141,0,0,0-.164-1.787C2.93,9.113,1.668,6.556.406,3.966A2.68,2.68,0,0,1,1.717,0ZM32.039,78.951H56.378c1.033,0,1.033,0,.59-.885-.557-1.1-1.115-2.2-1.639-3.294a.951.951,0,0,0-1.016-.623c-.934.033-1.852.033-2.786,0A2.434,2.434,0,0,1,49.2,71.674a2.4,2.4,0,0,1,2.344-2.524,17.867,17.867,0,0,1,2.295,0c.721.066.983-.262,1.18-.9a92.448,92.448,0,0,0,3.753-29.256,96.1,96.1,0,0,0-1.213-12.276,91.992,91.992,0,0,0-2.573-11.08c-.18-.606-.443-.852-1.082-.82a21.431,21.431,0,0,1-2.295,0,2.441,2.441,0,0,1-2.426-2.557A2.355,2.355,0,0,1,51.593,9.8c.9-.016,1.8-.033,2.7,0a.951.951,0,0,0,1.016-.623c.541-1.131,1.115-2.245,1.672-3.376.393-.8.393-.82-.541-.82H12.273c-1.606,0-3.229.016-4.835-.016-.7-.016-.721.213-.426.754q.885,1.7,1.721,3.442A.964.964,0,0,0,9.748,9.8c.934-.033,1.852-.033,2.786,0a2.423,2.423,0,0,1,2.327,2.475,2.431,2.431,0,0,1-2.344,2.54,17.865,17.865,0,0,1-2.295,0c-.721-.066-.983.262-1.18.9A92.448,92.448,0,0,0,5.29,44.975,99.154,99.154,0,0,0,6.5,57.251a95.225,95.225,0,0,0,2.573,11.08c.18.606.443.852,1.082.82a21.434,21.434,0,0,1,2.295,0,2.431,2.431,0,0,1,2.426,2.475,2.368,2.368,0,0,1-2.409,2.54c-.9.016-1.8.033-2.7,0a.964.964,0,0,0-1.016.639c-.508,1.082-1.065,2.147-1.606,3.229-.475.951-.475.951.557.951Q19.869,78.935,32.039,78.951Z" transform="translate(0.004)"/>
      <path id="Path_1860" data-name="Path 1860" d="M99.437,180.192A7.587,7.587,0,0,1,88.5,187.157q-12.366-6.392-24.634-12.981a7.391,7.391,0,0,1-.229-12.932c4.458-2.77,8.933-5.474,13.391-8.261a12.767,12.767,0,0,1,4.573-2.1,9.661,9.661,0,0,1,11.1,6.769c1.623,5.032,3.163,10.1,4.753,15.161.574,1.819,1.115,3.655,1.7,5.474A5.561,5.561,0,0,1,99.437,180.192Zm-16.21-24.323a4.208,4.208,0,0,0-2.622.9c-2.131,1.328-4.261,2.672-6.392,3.983-2.557,1.573-5.13,3.131-7.671,4.7a2.513,2.513,0,0,0-1.41,1.885,2.45,2.45,0,0,0,1.573,2.524q6.835,3.614,13.669,7.244c3.327,1.754,6.671,3.508,10,5.261a2.669,2.669,0,0,0,2.114.344c1.541-.525,2.147-1.754,1.606-3.475Q92,172.529,89.882,165.8c-.688-2.18-1.36-4.376-2.065-6.556A4.529,4.529,0,0,0,83.227,155.869Z" transform="translate(-50.118 -126.022)"/>
      <path id="Path_1861" data-name="Path 1861" d="M125.1,59.663c.852,0,1.688-.016,2.54,0a2.509,2.509,0,0,1-.016,5.015c-1.688.016-3.376.016-5.081,0a2.417,2.417,0,0,1-2.442-2.524,2.366,2.366,0,0,1,2.459-2.491C123.411,59.646,124.247,59.663,125.1,59.663Z" transform="translate(-100.415 -49.878)"/>
      <path id="Path_1862" data-name="Path 1862" d="M215.1,59.663c.852,0,1.688-.016,2.54,0a2.509,2.509,0,0,1-.016,5.015c-1.688.016-3.376.016-5.081,0a2.427,2.427,0,0,1-2.442-2.524,2.366,2.366,0,0,1,2.459-2.491C213.411,59.646,214.247,59.663,215.1,59.663Z" transform="translate(-175.664 -49.878)"/>
      <path id="Path_1863" data-name="Path 1863" d="M125.133,426.653c-.819,0-1.639.016-2.459,0a2.508,2.508,0,0,1-.033-5.015c1.688-.016,3.376-.016,5.081,0a2.408,2.408,0,0,1,2.426,2.54,2.357,2.357,0,0,1-2.475,2.475C126.822,426.669,125.969,426.653,125.133,426.653Z" transform="translate(-100.498 -352.52)"/>
      <path id="Path_1864" data-name="Path 1864" d="M215.083,426.59c-.82,0-1.639.016-2.459,0a2.418,2.418,0,0,1-2.426-2.54,2.375,2.375,0,0,1,2.393-2.475q2.581-.049,5.163,0a2.428,2.428,0,0,1,2.393,2.491,2.363,2.363,0,0,1-2.344,2.508C216.886,426.623,215.985,426.59,215.083,426.59Z" transform="translate(-175.746 -352.457)"/>
      <path id="Path_1865" data-name="Path 1865" d="M120.2,243.158a2.4,2.4,0,0,1,2.573-2.459,2.516,2.516,0,1,1-2.573,2.459Z" transform="translate(-100.497 -201.248)"/>
      <path id="Path_1866" data-name="Path 1866" d="M182.64,210.7a2.516,2.516,0,1,1-2.54,2.524A2.446,2.446,0,0,1,182.64,210.7Z" transform="translate(-150.581 -176.165)"/>
      <path id="Path_1867" data-name="Path 1867" d="M212.59,275.715a2.508,2.508,0,1,1,2.54-2.491A2.414,2.414,0,0,1,212.59,275.715Z" transform="translate(-175.663 -226.332)"/>
    </g>
  </g>
</svg>
