<svg xmlns="http://www.w3.org/2000/svg" viewBox="242.869 317.788 106.831 109.644">
  <g id="chocolate" transform="matrix(0.899, 0.438, -0.438, 0.899, 265.287, 310.761)">
    <g id="Group_1527" data-name="Group 1527" transform="translate(16.028 0)">
      <g id="Group_1526" data-name="Group 1526" transform="translate(0 0)">
        <path id="Path_1844" data-name="Path 1844" d="M93.566,61.7l0-.006L65.647,4.458a3.522,3.522,0,0,0-4.681-1.631l-1.936.945-.854-1.784A3.537,3.537,0,0,0,53.451.357L18,17.616a3.537,3.537,0,0,0-1.616,4.726L27.41,45.058,24.193,46.2a1.525,1.525,0,0,0-.122,2.821l6.769,3.049L44.3,79.56a3.537,3.537,0,0,0,4.711,1.631l1.936-.945.869,1.784A3.537,3.537,0,0,0,56.5,83.661L91.931,66.4A3.522,3.522,0,0,0,93.566,61.7ZM54.746,3.1a.488.488,0,0,1,.64.229l4.894,10.047-7.867,3.4L47.55,6.623ZM35.308,27.48l6.464-2.79,3.888,8.065L39.165,35.56Zm3.857,15.307-2.485-.778a1.523,1.523,0,0,0-.945,0L30.322,43.93l-.5-1.037,7.882-3.4Zm7.76-7.272,2.638,5.458-1.525-.96a1.524,1.524,0,0,0-1.723,0l-3.7,2.805-2.18-4.574Zm1.525-3.949L44.562,23.5l6.419-2.836,3.888,8.05Zm7.745,0,4.726,9.788L56.728,38.96a1.525,1.525,0,0,0-2.081.565l-.008.014L53.451,41.75l-3.659-7.455ZM59,30.361l7.913-3.415,5.809,11.922L67.6,37.649a1.524,1.524,0,0,0-1.418.381l-2.363,2.287Zm-1.326-2.744-3.888-8.05,7.882-3.476,3.979,8.065ZM44.821,7.95,49.67,17.966l-6.419,2.76L38.555,11Zm-9.01,4.391,4.574,9.6-6.449,2.79-4.467-9.331ZM19.117,21.016a.488.488,0,0,1,.213-.64l7.44-3.629,4.406,9.148L23.187,29.34ZM24.483,32.13l7.958-3.43L36.3,36.765,28.462,40.18ZM47.642,78.447a.488.488,0,0,1-.64-.213L33.28,50.181a1.524,1.524,0,0,0-.732-.732l-3.811-1.723,7.532-2.668,5.4,1.6a1.525,1.525,0,0,0,.427,0h.427a1.537,1.537,0,0,0,.259-.076,1.351,1.351,0,0,0,.137-.107h.122l4.315-3.339,5.123,3.2a1.525,1.525,0,0,0,.5.183h.3l.168.061h.5l.122-.091.244-.183a1.53,1.53,0,0,0,.2-.229,1.2,1.2,0,0,0,.107-.122L56.5,42.345l5.016,2.836a1.524,1.524,0,0,0,1.814-.229l4.33-4.193L74.4,42.375l8.843,18.158a.473.473,0,0,1-.205.636l-.008,0ZM90.849,63.354a.473.473,0,0,1-.244.274L55.158,80.917a.488.488,0,0,1-.64-.229L53.649,78.9,84.415,63.918a3.537,3.537,0,0,0,1.631-4.711L60.372,6.517l1.936-.945a.473.473,0,0,1,.636.205l0,.008L90.818,63A.472.472,0,0,1,90.849,63.354Z" transform="translate(-16.028 0)"/>
      </g>
    </g>
    <g id="Group_1529" data-name="Group 1529" transform="translate(39.878 53.608)">
      <g id="Group_1528" data-name="Group 1528">
        <path id="Path_1845" data-name="Path 1845" d="M150.84,295.891c-.012-.026-.024-.051-.037-.076l-6.723-13.66a1.527,1.527,0,0,0-2.744,1.342l6.723,13.645a1.525,1.525,0,1,0,2.781-1.25Z" transform="translate(-141.18 -281.297)"/>
      </g>
    </g>
  </g>
</svg>
