<svg xmlns="http://www.w3.org/2000/svg" viewBox="810.191 207.562 84 80.728">
  <g id="coffee-beans" transform="translate(810.191 199.844)">
    <path id="Path_1839" data-name="Path 1839" d="M15.447,82.194c-3.881-6.847-1.241-17.583,6.79-25.615,9.12-9.119,21.73-11.293,28.168-4.855a.247.247,0,0,0,.025.026C49.14,55.5,45.036,63.474,32.737,67.787,21.469,71.739,17.124,78.024,15.447,82.194ZM46.613,62.243a34.014,34.014,0,0,1-13.044,7.911C21.55,74.368,18.193,81.269,17.255,84.61c.045.045.082.093.125.135,6.437,6.438,19.048,4.264,28.166-4.855,8.114-8.114,10.724-18.989,6.668-25.824A26.21,26.21,0,0,1,46.613,62.243ZM21.742,32.586c12.984,1.138,20.008-4.44,22.725-7.324,0-.011-.008-.024-.012-.035-3.213-8.517-15.6-11.731-27.665-7.178C6.165,22.058-.665,30.753.051,38.59,3.3,35.482,9.847,31.545,21.742,32.586Zm6.686,16.306c10.737-4.05,17.593-12.885,16.713-20.784a26.21,26.21,0,0,1-8.472,5.145,34.027,34.027,0,0,1-15.144,1.833C8.839,33.973,2.934,38.878.7,41.538c.023.059.039.117.059.173C3.976,50.23,16.362,53.445,28.428,48.892ZM66,31.131c7.79-10.452,6.733-19.359,5.706-23.186a.293.293,0,0,1-.035-.008C62.74,6.2,53.5,15.049,51.033,27.706c-2.171,11.151,1.642,21.528,8.686,25.036C58.78,48.347,58.872,40.707,66,31.131ZM74.487,8.867a26.188,26.188,0,0,1-.073,9.911,34.034,34.034,0,0,1-6.4,13.851c-7.611,10.211-6.539,17.81-5.447,21.107.062.013.121.029.178.042,8.937,1.74,18.177-7.111,20.642-19.769C85.586,22.743,81.67,12.266,74.487,8.867Z" transform="translate(0 0)"/>
  </g>
</svg>
