<svg xmlns="http://www.w3.org/2000/svg" viewBox="1007.939 479.863 29.21 84">
  <g id="coke-bottle" transform="translate(871.988 479.863)">
    <g id="Group_1470" data-name="Group 1470" transform="translate(135.951)">
      <g id="Group_1469" data-name="Group 1469" transform="translate(0)">
        <path id="Path_1814" data-name="Path 1814" d="M138.18,51.628l.22,1.408.539-.141a11.325,11.325,0,0,1,2.857-.358A15.523,15.523,0,0,1,153.5,58.46a15.337,15.337,0,0,0,9.772,5.749l.584.091,0-.59a77.406,77.406,0,0,1,1.254-12.091c.151-.961.307-1.953.451-2.932a36.089,36.089,0,0,0-1.8-17.938q-.352-.976-.708-1.947c-2.649-7.25-5.151-14.1-3.795-22.044A3.838,3.838,0,0,0,156.764,0h-10.24a3.839,3.839,0,0,0-2.5,6.757c1.357,7.943-1.146,14.794-3.795,22.044q-.355.972-.708,1.947a36.088,36.088,0,0,0-1.8,17.939C137.872,49.668,138.029,50.664,138.18,51.628Zm11.413-43.4h4.1c-.79,8.323,1.824,15.477,4.354,22.4l.1.276q.3.824.6,1.653a32.888,32.888,0,0,1,1.044,3.481h-16.3a32.981,32.981,0,0,1,1.044-3.484q.3-.826.6-1.65l.1-.276C147.769,23.7,150.383,16.55,149.593,8.227Z" transform="translate(-137.038)"/>
        <path id="Path_1815" data-name="Path 1815" d="M164.549,292.8a26.574,26.574,0,0,1-1.563-6.456l-.062-.53-.525.093a11.858,11.858,0,0,1-2.051.176,15.206,15.206,0,0,1-10.723-4.8c-.436-.467-.86-.955-1.27-1.427a17.533,17.533,0,0,0-4.518-4.094,13.153,13.153,0,0,0-5.574-1.611l-.621-.046.085.617c.788,5.737,1.193,11.9-1.164,18.082a6.791,6.791,0,0,0,.129,5.938c1.076,1.86,3.227,3.1,6.221,3.574,1.907.306,4.673.449,6.325.534.591.03,2.043.03,2.634,0,1.653-.085,4.419-.228,6.325-.534,2.994-.479,5.146-1.714,6.221-3.574A6.792,6.792,0,0,0,164.549,292.8Z" transform="translate(-135.951 -218.87)"/>
      </g>
    </g>
  </g>
</svg>
