<svg xmlns="http://www.w3.org/2000/svg" viewBox="1136.545 317.545 84 84">
  <g id="cookie" transform="translate(1136.545 317.545)">
    <g id="Group_1480" data-name="Group 1480" transform="translate(0 0)">
      <g id="Group_1479" data-name="Group 1479" transform="translate(0 0)">
        <path id="Path_1819" data-name="Path 1819" d="M83.617,25.209a.225.225,0,0,0-.01-.037,3.465,3.465,0,0,0-.163-.572c-.021-.056-.035-.112-.058-.166s-.026-.089-.046-.13c-.039-.082-.1-.149-.149-.228a3.512,3.512,0,0,0-.264-.406,3.38,3.38,0,0,0-.275-.319,5.872,5.872,0,0,0-.682-.55.207.207,0,0,0-.032-.023,3.177,3.177,0,0,0-1.05-.385,3.489,3.489,0,0,0-.537-.079c-.063,0-.121-.026-.184-.026-.114,0-.219.023-.329.033-.052.005-.1.009-.156.016a3.608,3.608,0,0,0-.6.14c-.028.009-.06.01-.088.021a6.941,6.941,0,0,1-9.436-6.449,6.759,6.759,0,0,1,2.2-5.023,3.5,3.5,0,0,0-.338-5.418A29.918,29.918,0,0,0,53.9,0,30.223,30.223,0,0,0,24.243,24.74,29.9,29.9,0,0,0,30.1,84,30.2,30.2,0,0,0,59.761,59.26,29.87,29.87,0,0,0,84,29.907,27.6,27.6,0,0,0,83.617,25.209ZM53.14,55.919A23.1,23.1,0,1,1,27.713,31.29c.84-.082,1.621-.123,2.387-.123A23.088,23.088,0,0,1,40.469,33.6,13.877,13.877,0,0,0,52.743,54.11c.159,0,.317,0,.474-.007C53.217,54.712,53.184,55.337,53.14,55.919Zm7-3.931c0-.028-.007-.058-.011-.086-.061-.81-.154-1.633-.285-2.48,0-.023-.014-.044-.019-.068a3.564,3.564,0,0,0-.175-.644c-.005-.016-.009-.031-.014-.047a3.486,3.486,0,0,0-2.2-2.039l-.009,0a3.429,3.429,0,0,0-.739-.145l-.023,0c-.1-.009-.187-.028-.285-.028a3.489,3.489,0,0,0-1.368.278,6.863,6.863,0,0,1-2.271.387,6.938,6.938,0,0,1-6.963-6.895,6.858,6.858,0,0,1,2.2-5.024,3.5,3.5,0,0,0-.34-5.418q-.927-.661-1.894-1.246c-.221-.133-.448-.25-.67-.378-.429-.247-.859-.493-1.3-.716-.271-.138-.549-.259-.826-.39-.4-.189-.8-.38-1.211-.55-.3-.124-.6-.235-.9-.348-.4-.151-.795-.3-1.2-.436-.313-.1-.63-.2-.947-.289-.4-.119-.8-.235-1.211-.336-.324-.08-.649-.152-.976-.222-.408-.088-.816-.168-1.227-.24q-.5-.087-1-.154c-.413-.058-.83-.105-1.246-.144-.336-.032-.674-.061-1.012-.082-.168-.011-.334-.033-.5-.04A23.187,23.187,0,0,1,64.251,9.429,13.882,13.882,0,0,0,77,29.935,22.882,22.882,0,0,1,60.139,51.989Z" transform="translate(0 0)"/>
      </g>
    </g>
    <g id="Group_1482" data-name="Group 1482" transform="translate(22.75 36.75)">
      <g id="Group_1481" data-name="Group 1481">
        <circle id="Ellipse_237" data-name="Ellipse 237" cx="5.25" cy="5.25" r="5.25"/>
      </g>
    </g>
    <g id="Group_1484" data-name="Group 1484" transform="translate(45.5 12.25)">
      <g id="Group_1483" data-name="Group 1483">
        <circle id="Ellipse_238" data-name="Ellipse 238" cx="5.25" cy="5.25" r="5.25"/>
      </g>
    </g>
    <g id="Group_1486" data-name="Group 1486" transform="translate(56 29.75)">
      <g id="Group_1485" data-name="Group 1485">
        <circle id="Ellipse_239" data-name="Ellipse 239" cx="5.25" cy="5.25" r="5.25"/>
      </g>
    </g>
    <g id="Group_1488" data-name="Group 1488" transform="translate(14 50.75)">
      <g id="Group_1487" data-name="Group 1487">
        <circle id="Ellipse_240" data-name="Ellipse 240" cx="5.25" cy="5.25" r="5.25"/>
      </g>
    </g>
    <g id="Group_1490" data-name="Group 1490" transform="translate(31.5 56)">
      <g id="Group_1489" data-name="Group 1489">
        <circle id="Ellipse_241" data-name="Ellipse 241" cx="5.25" cy="5.25" r="5.25"/>
      </g>
    </g>
  </g>
</svg>
