<svg xmlns="http://www.w3.org/2000/svg" viewBox="627.127 706.128 52.992 84">
  <path id="groceries-bag" d="M51.828,26.48a1.643,1.643,0,0,0-1.748.53l-.685.823V10.092a1.641,1.641,0,0,0-1.641-1.641H24.112A9.939,9.939,0,0,0,14.3,0h-.014A9.934,9.934,0,0,0,4.377,9.937l.031,18.848L2.918,27a1.676,1.676,0,0,0-1.277-.59A1.657,1.657,0,0,0,0,28.067V82.359A1.641,1.641,0,0,0,1.641,84H51.349a1.641,1.641,0,0,0,1.641-1.641l0-54.31A1.64,1.64,0,0,0,51.828,26.48ZM24.321,32.787c-.036-.359-.061-.72-.062-1.08v-.084a10.927,10.927,0,0,1,21.854.047c0,.037,0,.075,0,.113l-3.022,3.631L36.072,27a1.641,1.641,0,0,0-2.521,0l-7.029,8.429ZM46.113,22.6a14.192,14.192,0,0,0-21.869.016l-.018-10.881H46.113V22.6ZM7.66,9.932a6.647,6.647,0,0,1,6.628-6.65H14.3a6.654,6.654,0,0,1,6.225,4.324L13.356,14.8A1.231,1.231,0,0,0,15.1,16.533l5.842-5.86.008,5.2-7.576,7.6a1.231,1.231,0,0,0,1.744,1.738l5.838-5.857.016,9.414L19.5,27a1.641,1.641,0,0,0-2.521,0L9.947,35.427l-2.25-2.7ZM49.708,80.718H3.282V32.561l5.4,6.48a1.641,1.641,0,0,0,2.521,0l7.027-8.429,3.224,3.868.031.038,3.772,4.524a1.641,1.641,0,0,0,2.521,0l7.029-8.429,7.016,8.416a1.641,1.641,0,0,0,1.26.59h0a1.641,1.641,0,0,0,1.261-.591l4.665-5.605.01-.012.684-.822Z" transform="translate(627.127 706.128)"/>
</svg>
