<svg xmlns="http://www.w3.org/2000/svg" viewBox="482.579 211.068 41.149 84">
  <g id="ice-cream" transform="translate(351.985 211.068)">
    <g id="Group_1530" data-name="Group 1530" transform="translate(130.594)">
      <path id="Path_1854" data-name="Path 1854" d="M164.666,10.359A10.719,10.719,0,0,0,153.966,0h-5.6a10.719,10.719,0,0,0-10.7,10.359,10.726,10.726,0,0,0-7.077,10.074v5.6a10.66,10.66,0,0,0,2.472,6.835c.008.034.013.068.023.1L146.8,80.71h0a4.545,4.545,0,0,0,8.736,0l13.711-47.745c.01-.034.015-.068.023-.1a10.66,10.66,0,0,0,2.472-6.835v-5.6A10.726,10.726,0,0,0,164.666,10.359ZM148.371,4.922h5.6a5.8,5.8,0,0,1,5.7,4.8h-4.228a10.644,10.644,0,0,0-4.271.891,10.646,10.646,0,0,0-4.271-.891H142.67A5.8,5.8,0,0,1,148.371,4.922ZM135.516,26.028v-5.6a5.793,5.793,0,0,1,5.787-5.787h5.133a10.641,10.641,0,0,0-1.705,5.787v5.6a10.655,10.655,0,0,0,.7,3.8h-8.487A5.762,5.762,0,0,1,135.516,26.028Zm3.206,8.719h13.087l-11.243,6.421Zm12.447,43.343-2.862-9.965,6.846-3.909ZM157.1,57.435l-10.191,5.82-1.773-6.175,14.433-8.242Zm4.416-15.377L143.737,52.211l-1.773-6.175,19.77-11.29h1.881Zm5.305-16.031a5.761,5.761,0,0,1-1.425,3.8H151.078a5.761,5.761,0,0,1-1.425-3.8v-5.6a5.793,5.793,0,0,1,5.787-5.787h5.6a5.793,5.793,0,0,1,5.787,5.787Z" transform="translate(-130.594)"/>
    </g>
  </g>
</svg>
