<svg xmlns="http://www.w3.org/2000/svg" viewBox="966 293 66.908 84">
  <g id="jar" transform="translate(966.07 293)">
    <g id="Group_1537" data-name="Group 1537" transform="translate(-0.071)">
      <path id="Path_1868" data-name="Path 1868" d="M11.586,84a2.868,2.868,0,0,1-1.767-2.777,15.228,15.228,0,0,1,.063-2.4,2.253,2.253,0,0,0-.757-2.083c-2.02-1.893-4.039-3.787-5.869-5.869A12.23,12.23,0,0,1,4.833,52.7,40.389,40.389,0,0,0,14.994,41.148a35.508,35.508,0,0,0,4.607-14.2c.126-1.2.063-2.335.252-3.534a1.956,1.956,0,0,0-.316-1.073l-4.165-8.331a2.692,2.692,0,0,1-.126-2.588,2.441,2.441,0,0,1,2.146-1.388c1.325,0,2.651-.063,4.039,0,.631,0,.694-.189.5-.694-.631-1.83-1.2-3.724-1.83-5.617A2.7,2.7,0,0,1,22.82,0c6.311.063,12.622.063,18.933.063,2.272,0,3.345,1.515,2.651,3.66-.568,1.893-1.2,3.724-1.83,5.617-.189.5-.126.694.379.884a2.345,2.345,0,0,1,1.641,2.461v.063c0,2.209,0,2.209,2.209,2.209h7.889A12.352,12.352,0,0,1,66.808,26.443c.189,2.524-.568,4.923-1.073,7.321-1.452,6.563-2.9,13.127-4.355,19.754a1.291,1.291,0,0,0,.252,1.262,12.258,12.258,0,0,1-.947,16.6L55.2,76.869a2,2,0,0,0-.694,1.7c.063.82,0,1.641,0,2.461A2.8,2.8,0,0,1,52.8,84ZM32.16,79.077H48.569c.568,0,1.01-.063.884-.757A4.964,4.964,0,0,1,51.6,73.271a5.1,5.1,0,0,0,1.01-1.01c1.641-1.7,3.408-3.345,4.986-5.112a6.893,6.893,0,0,0,1.641-5.3,8.037,8.037,0,0,0-3.408-5.554,41.709,41.709,0,0,1-12.559-15.9,1.11,1.11,0,0,0-1.2-.757H22.315a1.11,1.11,0,0,0-1.2.757A42.1,42.1,0,0,1,16.7,47.838a46.366,46.366,0,0,1-8.9,9.025A7.118,7.118,0,0,0,6.979,67.4c2.209,2.4,4.607,4.67,6.879,7.005a3.029,3.029,0,0,1,1.01,2.461,7.606,7.606,0,0,0,0,1.2c-.126.757.252.947.947.947C21.305,79.014,26.733,79.077,32.16,79.077ZM30.646,15.083h-8.2c-.568,0-.82.063-.5.694.82,1.578,1.578,3.156,2.4,4.733a4.668,4.668,0,0,1,.568,2.272,40.322,40.322,0,0,1-1.388,10.981c-.189.631-.126.884.631.884H40.112c.947,0,.947,0,.757-1.01a48.806,48.806,0,0,1-1.325-9.53c-.126-2.714.063-5.427.063-8.078,0-.694-.189-.947-.947-.947ZM56.71,50.3c.063-.189.126-.252.126-.379,1.578-7.005,3.156-14.074,4.67-21.079A7.1,7.1,0,0,0,55.764,20.2c-3.471-.5-7.005-.126-10.539-.189-.379,0-.568.126-.568.5,0,1.136.063,2.272.063,3.408,0,.631.316.884.947.884,2.777-.063,5.554,0,8.331,0,2.209,0,3.282,1.325,2.84,3.534-.316,1.515-.631,2.966-1.01,4.481-.947,4.228-1.893,8.394-2.84,12.622-.063.379-.252.757,0,1.073A42.1,42.1,0,0,0,56.71,50.3ZM32.287,5.049h0c-1.83,0-3.66.063-5.491,0-.757,0-.82.189-.568.82l1.136,3.408c.126.5.379.694.947.694h8.015a.713.713,0,0,0,.82-.568c.379-1.262.82-2.524,1.262-3.724.189-.568,0-.694-.5-.631ZM48.948,40.328c.757-3.471,1.452-6.69,2.209-9.908.063-.442,0-.631-.442-.631H45.981c-.442,0-.568.126-.5.568A32.944,32.944,0,0,0,48.948,40.328Z" transform="translate(0.071)"/>
      <path id="Path_1869" data-name="Path 1869" d="M62.447,100.894a7.447,7.447,0,1,1,7.384-7.447A7.328,7.328,0,0,1,62.447,100.894Zm0-5.175a2.137,2.137,0,0,0,2.272-2.209,2.293,2.293,0,0,0-2.272-2.4,2.472,2.472,0,0,0-2.4,2.335A2.332,2.332,0,0,0,62.447,95.719Z" transform="translate(-20.245 -31.725)"/>
      <path id="Path_1870" data-name="Path 1870" d="M28.849,96.388a2.42,2.42,0,0,1-2.588,2.461A2.456,2.456,0,0,1,23.8,96.261,2.4,2.4,0,0,1,26.324,93.8,2.507,2.507,0,0,1,28.849,96.388Z" transform="translate(-8.735 -34.602)"/>
      <path id="Path_1871" data-name="Path 1871" d="M55,72.961a2.525,2.525,0,1,1,2.524,2.588A2.506,2.506,0,0,1,55,72.961Z" transform="translate(-20.245 -26.007)"/>
      <path id="Path_1872" data-name="Path 1872" d="M41.888,109.4a2.42,2.42,0,0,1,2.461,2.588,2.525,2.525,0,0,1-5.049-.063A2.545,2.545,0,0,1,41.888,109.4Z" transform="translate(-14.453 -40.357)"/>
    </g>
  </g>
</svg>
