<svg xmlns="http://www.w3.org/2000/svg" viewBox="316.554 660.242 65.461 84">
  <g id="juice" transform="translate(260.055 660.242)">
    <g id="Group_1558" data-name="Group 1558" transform="translate(56.499)">
      <path id="Path_1878" data-name="Path 1878" d="M105.5,2.789A16.482,16.482,0,0,0,89.1,17.828H80.435L77.883,0H56.5V4.922H73.615l1.848,12.906H64.591l8.566,53.3a14.5,14.5,0,0,0-2.564,7.76V84h31.312V78.89a14.5,14.5,0,0,0-2.564-7.76L105.034,35.7c.154,0,.309.007.465.007a16.461,16.461,0,1,0,0-32.922ZM94.14,72.474l.727.863a9.989,9.989,0,0,1,2.116,5.554v.188H75.515V78.89a9.273,9.273,0,0,1,1.508-4.679h9.226V69.289h-8.4l-5.4-33.578h27.6Zm6.7-41.685H71.659L70.367,22.75h31.764Zm4.986-.008,1.295-8.058h2.972V17.8h-2.57v-2.57H102.6v2.6h-8.55a11.538,11.538,0,1,1,11.775,12.953Z" transform="translate(-56.499)"/>
    </g>
  </g>
</svg>
