<svg xmlns="http://www.w3.org/2000/svg" viewBox="1057 363 49.383 84">
  <g id="milk" transform="translate(951.5 363)">
    <g id="Group_1532" data-name="Group 1532" transform="translate(105.5)">
      <g id="Group_1531" data-name="Group 1531">
        <path id="Path_1855" data-name="Path 1855" d="M147.769,10.121V0H113.283V10.074L105.5,24.739V84h49.383V24.786Zm-29.564-5.2h24.642v3.3h-3.906v4.922h4.825l5.67,11.689H126.428v-.063l-5.793-11.625h4.307V8.225h-6.736Zm-2.058,10.255,4.813,9.659h-9.94Zm5.359,63.9H110.422V72.188h11.084Zm0-11.813H110.422V41.97h11.084Zm0-30.218H110.422v-7.29h11.084Zm28.455,42.03H126.428V29.758h23.533Z" transform="translate(-105.5)"/>
      </g>
    </g>
    <g id="Group_1534" data-name="Group 1534" transform="translate(130.41 43.734)">
      <g id="Group_1533" data-name="Group 1533" transform="translate(0)">
        <path id="Path_1856" data-name="Path 1856" d="M269.618,271.622a40.519,40.519,0,0,0-2.816-3.261l-1.758-1.794-1.758,1.794a40.466,40.466,0,0,0-2.816,3.261c-2.14,2.775-3.137,4.911-3.137,6.719a7.711,7.711,0,0,0,15.422,0C272.755,276.533,271.758,274.4,269.618,271.622Zm-4.574,9.508a2.792,2.792,0,0,1-2.789-2.789c0-.01.036-1.016,2.1-3.694.232-.3.466-.593.691-.865.225.273.459.563.691.865,2.061,2.677,2.1,3.683,2.1,3.694A2.792,2.792,0,0,1,265.044,281.13Z" transform="translate(-257.333 -266.567)"/>
      </g>
    </g>
  </g>
</svg>
