<svg xmlns="http://www.w3.org/2000/svg" viewBox="356.332 215.346 84 80.095">
  <g id="noodles" transform="translate(-137 -51)">
    <g id="noodles-2" data-name="noodles" transform="translate(493.332 266.346)">
      <g id="Group_1521" data-name="Group 1521" transform="translate(31.14 40.895)">
        <g id="Group_1520" data-name="Group 1520">
          <path id="Path_1841" data-name="Path 1841" d="M200.663,261.167a12.249,12.249,0,0,0-10.86,6.606h21.721A12.248,12.248,0,0,0,200.663,261.167Z" transform="translate(-189.803 -261.167)"/>
        </g>
      </g>
      <g id="Group_1523" data-name="Group 1523" transform="translate(10.5 0)">
        <g id="Group_1522" data-name="Group 1522" transform="translate(0 0)">
          <path id="Path_1842" data-name="Path 1842" d="M67.169,11.9l-1.218,4.769L106.32,26.976H64V31.9h53.539V49.522A26.953,26.953,0,0,0,69.133,59.4H79.29a17.161,17.161,0,0,1,32.42,0h10.751V31.9h2.789v-.089l.047.012.609-2.384.609-2.384Z" transform="translate(-64 -11.9)"/>
        </g>
      </g>
      <g id="Group_1525" data-name="Group 1525" transform="translate(0 52.423)">
        <g id="Group_1524" data-name="Group 1524" transform="translate(0 0)">
          <path id="Path_1843" data-name="Path 1843" d="M0,331.433H0v4.922H6.409A25.246,25.246,0,0,0,31.5,359.105h21a25.246,25.246,0,0,0,25.091-22.75H84v-4.922Z" transform="translate(0 -331.433)"/>
        </g>
      </g>
    </g>
  </g>
</svg>
