<svg xmlns="http://www.w3.org/2000/svg" viewBox="698 206 84 83.779">
  <g id="rice" transform="translate(698 205.932)">
    <path id="Path_1846" data-name="Path 1846" d="M83.321,1.611a1.651,1.651,0,0,0-2.31.362l-15.5,21.263a2.775,2.775,0,0,0-2.217-.658,2.691,2.691,0,0,0-.509-1.485c-.04-.055-.1-.089-.141-.141L69.209,2.271a1.653,1.653,0,0,0-3.12-1.095L59.64,19.531a2.69,2.69,0,0,0-.423-.772A2.834,2.834,0,0,0,56,17.954a2.706,2.706,0,0,0-.613-1.075,2.84,2.84,0,0,0-3.414-.516,2.761,2.761,0,0,0-2.528-1.64,2.712,2.712,0,0,0-1.662.565,2.757,2.757,0,0,0-2.364-1.333,2.709,2.709,0,0,0-1.928.789,2.756,2.756,0,0,0-4.324,0,2.709,2.709,0,0,0-1.928-.789,2.753,2.753,0,0,0-2.364,1.333,2.712,2.712,0,0,0-1.662-.565,2.761,2.761,0,0,0-2.528,1.64,2.829,2.829,0,0,0-3.325.448c-2-2.2-4.656-4.525-7.442-5.435L18.474,10.9l-.59,1.4c-.131.311-2.374,5.805-.961,11.179a2.676,2.676,0,0,0-.342.448,2.709,2.709,0,0,0-.36,1.609,2.724,2.724,0,0,0-2.49,1.453,2.69,2.69,0,0,0-.273,1.88,2.763,2.763,0,0,0-2.216,1.591,2.717,2.717,0,0,0-.1,2.062A2.759,2.759,0,0,0,9.3,36.443a2.7,2.7,0,0,0-1.119.775,2.962,2.962,0,0,0-.228.332H3.925a3.928,3.928,0,0,0-2.859,1.243A3.976,3.976,0,0,0,.008,41.765C.987,56.228,10.187,63.49,23.7,69.941a7.7,7.7,0,0,1,3.509,3.376,4.992,4.992,0,0,1-.321,4.828,3.761,3.761,0,0,0,3.221,5.7h22.3a3.762,3.762,0,0,0,3.2-5.731,4.972,4.972,0,0,1-.3-4.8,7.69,7.69,0,0,1,3.509-3.378C72.332,63.49,81.532,56.228,82.511,41.765a3.971,3.971,0,0,0-1.058-2.971,3.926,3.926,0,0,0-2.859-1.243H74.708a2.518,2.518,0,0,0-.228-.332,2.683,2.683,0,0,0-1.121-.774,2.758,2.758,0,0,0-1.839-3.917,2.71,2.71,0,0,0-.1-2.062A2.768,2.768,0,0,0,69.2,28.875a2.684,2.684,0,0,0-1.508-3.026L83.678,3.921A1.647,1.647,0,0,0,83.321,1.611ZM15.911,53.779a1.652,1.652,0,0,1-2.318-.309,23.99,23.99,0,0,1-2.958-5.02,1.654,1.654,0,0,1,3.036-1.313,20.506,20.506,0,0,0,2.55,4.325A1.651,1.651,0,0,1,15.911,53.779ZM36.457,66.314a1.656,1.656,0,0,1-1.543,1.058,1.635,1.635,0,0,1-.6-.111A55.522,55.522,0,0,1,18.19,58.243a1.653,1.653,0,1,1,2.123-2.535,52.416,52.416,0,0,0,15.2,8.469A1.652,1.652,0,0,1,36.457,66.314Zm29.182-37.3a2.754,2.754,0,0,0,2.323,3.2,2.721,2.721,0,0,0,.136,1.964,2.766,2.766,0,0,0,1.776,1.5,2.723,2.723,0,0,0-.147,1.857H12.938a2.729,2.729,0,0,0-.146-1.855,2.767,2.767,0,0,0,1.91-3.471,2.754,2.754,0,0,0,2.323-3.2,2.771,2.771,0,0,0,2.141-1.075,11.5,11.5,0,0,0,.921,1.007l0,0h0l.018.02.109.1.076.073A6.373,6.373,0,0,0,24.7,30.938h0c.028,0,.056,0,.084-.007a6.985,6.985,0,0,0,5.891-3.552v0h0c.018-.031.03-.064.046-.1a6.353,6.353,0,0,0,.329-.686c0-.012.007-.023.012-.035a6.164,6.164,0,0,0,.4-1.587c.021-.187.021-.374.025-.561,0-.089.013-.177.012-.266a6.528,6.528,0,0,0-.979-3.237c0-.007-.01-.015-.013-.021-.157-.256-.37-.58-.63-.952-.023-.035-.038-.06-.063-.094A2.726,2.726,0,0,0,31,20.113a2.759,2.759,0,0,0,2.482-1.546,2.725,2.725,0,0,0,1.582.5,2.757,2.757,0,0,0,2.308-1.243,2.883,2.883,0,0,0,3.957-.25,2.877,2.877,0,0,0,3.957.25A2.759,2.759,0,0,0,47.6,19.07a2.713,2.713,0,0,0,1.582-.5,2.757,2.757,0,0,0,2.482,1.546,2.715,2.715,0,0,0,1.281-.319,2.725,2.725,0,0,0,.582.977,2.831,2.831,0,0,0,3,.711,2.713,2.713,0,0,0,.561,1.179,2.788,2.788,0,0,0,1.164.817l-2.918,8.307a1.653,1.653,0,1,0,3.12,1.095L61.009,25.6a2.742,2.742,0,0,0,1.915.527,2.681,2.681,0,0,0,.058.574l-4.476,6.139a1.653,1.653,0,0,0,2.672,1.946l4.233-5.807A1.866,1.866,0,0,0,65.639,29.019Z" transform="translate(0)"/>
    <path id="Path_1847" data-name="Path 1847" d="M25.777,18.213,27.43,16.56a1.653,1.653,0,1,0-2.338-2.338l-1.653,1.653a1.653,1.653,0,1,0,2.338,2.338Z" transform="translate(14.999 8.932)"/>
    <path id="Path_1848" data-name="Path 1848" d="M21.777,17.222a1.653,1.653,0,1,0-2.338,2.338l1.653,1.653a1.653,1.653,0,0,0,2.338-2.338Z" transform="translate(12.386 10.892)"/>
    <path id="Path_1849" data-name="Path 1849" d="M26.092,19.222l-1.653,1.653a1.653,1.653,0,1,0,2.338,2.338L28.43,21.56a1.653,1.653,0,0,0-2.338-2.338Z" transform="translate(15.653 12.199)"/>
    <path id="Path_1850" data-name="Path 1850" d="M31.261,19.7a1.653,1.653,0,0,0,1.169-2.822l-1.653-1.653a1.653,1.653,0,1,0-2.338,2.338l1.653,1.653A1.649,1.649,0,0,0,31.261,19.7Z" transform="translate(18.267 9.586)"/>
    <path id="Path_1851" data-name="Path 1851" d="M31.092,19.222l-1.653,1.653a1.653,1.653,0,1,0,2.338,2.338L33.43,21.56a1.653,1.653,0,0,0-2.338-2.338Z" transform="translate(18.92 12.199)"/>
    <path id="Path_1852" data-name="Path 1852" d="M13.092,19.222l-1.653,1.653a1.653,1.653,0,1,0,2.338,2.338L15.43,21.56a1.653,1.653,0,0,0-2.338-2.338Z" transform="translate(7.158 12.199)"/>
    <path id="Path_1853" data-name="Path 1853" d="M19.261,19.737H17.607a1.653,1.653,0,1,0,0,3.307h1.653a1.653,1.653,0,1,0,0-3.307Z" transform="translate(10.425 12.853)"/>
  </g>
</svg>
