<svg xmlns="http://www.w3.org/2000/svg" viewBox="1152.072 758.695 84 43.395">
  <defs>
    <style>
      .cls-1 {
        fill: #050505;
        fill-rule: evenodd;
      }
    </style>
  </defs>
  <path id="shoe" class="cls-1" d="M60.494,7.245,76,1.773a1.11,1.11,0,0,1,1.52.608c2.736,5.472,5.168,11.248,6.08,17.327A36.6,36.6,0,0,1,81.47,38.252V40.38c0,1.216-.912,2.432-1.824,2.432H73.87c-.912,0-1.824-.912-1.824-2.432v-.3H70.222v.3c0,1.216-.912,2.432-1.824,2.432H62.622c-.912,0-1.824-.912-1.824-2.432v-.3H58.67v.3c0,1.216-.912,2.432-1.824,2.432h-6.08c-.912,0-1.824-.912-1.824-2.432v-.3c-2.128.3-4.256.912-6.384,1.216a2.033,2.033,0,0,1-1.824,2.128H34.959a2.02,2.02,0,0,1-1.52-1.216H30.7a1.551,1.551,0,0,1-1.52,1.216H23.407q-1.368,0-1.824-1.824c-.912,0-1.824-.3-2.736-.3a1.667,1.667,0,0,1-1.824,1.216l-5.776-1.216a2.407,2.407,0,0,1-1.52-2.432c-.3,0-.3-.3-.608-.3a1.729,1.729,0,0,1-2.128,1.216L1.52,37.34C.608,37.036,0,35.516.3,34.3V34c0,.3-.3-.3-.3-.608A16.246,16.246,0,0,1,.912,26.7a7.524,7.524,0,0,1,4.256-4.864h0c5.472-1.824,10.944-3.648,16.719-6.08A108.174,108.174,0,0,0,38.3,6.941a1.462,1.462,0,0,1,1.824.608,2.67,2.67,0,0,1-.3,2.128c6.688,3.344,10.64,4.864,13.68,6.08,0,1.824-.3,3.952-.3,5.776a67.341,67.341,0,0,1-39.519.912,78.5,78.5,0,0,1-7.9,2.432,6.654,6.654,0,0,0-2.736,3.04,84.955,84.955,0,0,0,23.711,4.256A105.6,105.6,0,0,0,48.943,29.74H80.558a30.57,30.57,0,0,0,0-9.12c-.608-4.56-2.432-9.12-4.56-13.68-3.344,6.992-6.688,9.728-10.944,8.816S55.934,10.589,48.943,3.9l-6.08,5.776a1.146,1.146,0,0,1-1.824-.3,2.3,2.3,0,0,1,.3-2.432L48.031.253a1.938,1.938,0,0,1,1.824,0C56.846,6.941,62.014,11.5,65.662,12.109c3.344.608,6.08-1.824,9.12-8.816-1.824,3.04-5.776,7.9-7.9,7.6-2.736-.608-6.384-3.648-6.384-3.648ZM2.736,29.132v-.3c.3,0,0,.3,0,.3Z" transform="translate(1152.072 758.67)"/>
</svg>
