<svg xmlns="http://www.w3.org/2000/svg" viewBox="435 660 84 84">
  <g id="squeezer" transform="translate(434.999 660)">
    <g id="Group_1553" data-name="Group 1553" transform="translate(0.001)">
      <g id="Group_1552" data-name="Group 1552">
        <path id="Path_1877" data-name="Path 1877" d="M83.534,50.4a2.46,2.46,0,0,0-1.995-1.02H74.071a36.534,36.534,0,0,0-3.237-12.826,33.173,33.173,0,0,0-4.364-7.026H71.7a2.461,2.461,0,0,0,2.461-2.461v-.032a27.153,27.153,0,0,0-54.3-.011v.043a2.447,2.447,0,0,0,2.461,2.445h5.07a35.218,35.218,0,0,0-7.449,19.868H2.462A2.461,2.461,0,0,0,.074,52.441,20.084,20.084,0,0,0,14,66.841l.8.228L17.739,75.6A12.289,12.289,0,0,0,29.408,84H64.6a12.29,12.29,0,0,0,11.675-8.419l7.6-22.964A2.461,2.461,0,0,0,83.534,50.4Zm-14.4-1.02H59.193a68.678,68.678,0,0,0-3.148-19.852h3.6C65.018,34.159,68.525,41.537,69.138,49.383ZM24.91,24.609a22.241,22.241,0,0,1,44.188,0ZM54.269,49.383H39.576c.224-7.8,1.5-15.095,3.486-19.852h7.722C52.765,34.288,54.045,41.578,54.269,49.383ZM34.2,29.515h3.6a68.8,68.8,0,0,0-3.148,19.868H24.864C25.444,41.391,28.831,34.135,34.2,29.515ZM64.6,79.078H29.408a7.387,7.387,0,0,1-6.959-4.938H71.56A7.386,7.386,0,0,1,64.6,79.078Zm8.591-9.844H20.752l-1.716-4.981a2.461,2.461,0,0,0-1.651-1.565c-.794-.386-7.8-1.14-11.406-8.384H78.133Z" transform="translate(-0.001)"/>
      </g>
    </g>
    <g id="Group_1555" data-name="Group 1555" transform="translate(44.462 9.844)">
      <g id="Group_1554" data-name="Group 1554">
        <circle id="Ellipse_243" data-name="Ellipse 243" cx="2.461" cy="2.461" r="2.461"/>
      </g>
    </g>
    <g id="Group_1557" data-name="Group 1557" transform="translate(54.305 14.766)">
      <g id="Group_1556" data-name="Group 1556">
        <circle id="Ellipse_244" data-name="Ellipse 244" cx="2.461" cy="2.461" r="2.461"/>
      </g>
    </g>
  </g>
</svg>
