<svg xmlns="http://www.w3.org/2000/svg" viewBox="579.191 210.748 76.69 84">
  <g id="wine-glasses" transform="translate(560.955 210.748)">
    <g id="Group_1515" data-name="Group 1515" transform="translate(18.236 0)">
      <path id="Path_1833" data-name="Path 1833" d="M60.95,185.159a9.794,9.794,0,0,0,19.175,3.993l1.608-14.75c-5.284-2.867-3.348,9.017-12.474,7.047C62.991,180.093,61.283,184.1,60.95,185.159Z" transform="translate(-52.237 -139.091)"/>
      <path id="Path_1834" data-name="Path 1834" d="M94.8,86.669a2.364,2.364,0,0,0-2.994-1.5l-6.582,2.188-4.139-12.45a17.282,17.282,0,0,0,8.8-21.282l-10.814-25L50.314,38.195l1.921,7.816L27.658,40.7l-8.1,26.218a17.287,17.287,0,0,0,11.094,20L27.874,99.743,21.1,98.282a2.368,2.368,0,0,0-1,4.63l9.063,1.958c.007,0,.01.006.015.006s.022,0,.033,0l9.066,1.958a2.368,2.368,0,1,0,1-4.63L32.5,100.742,35.268,87.97c.454.037.907.074,1.361.074A17.552,17.552,0,0,0,53.678,74.1L55.6,59.7l1.262,5.13A17.216,17.216,0,0,0,76.606,76.438l4.128,12.414-6.569,2.183a2.367,2.367,0,0,0,.745,4.615,2.326,2.326,0,0,0,.747-.121L93.3,89.663A2.368,2.368,0,0,0,94.8,86.669ZM49.018,73.292a12.868,12.868,0,0,1-15.1,9.723h0a12.715,12.715,0,0,1-9.785-14.9L30.9,46.244l21.109,4.564Zm12.39-9.774-5.453-22.21L76.45,34.491l9.014,20.82a12.709,12.709,0,0,1-24.056,8.207Z" transform="translate(-18.236 -22.89)"/>
      <path id="Path_1835" data-name="Path 1835" d="M253.481,132.255c-.456-1.011-2.577-4.817-8.663-2.795-8.867,2.949-8.226-9.077-13.163-5.657l3.187,14.484a9.8,9.8,0,0,0,18.639-6.033Z" transform="translate(-188.884 -98.498)"/>
      <path id="Path_1836" data-name="Path 1836" d="M125.707,5.354a2.679,2.679,0,1,0-2.823-2.529A2.68,2.68,0,0,0,125.707,5.354Z" transform="translate(-101.908 0)"/>
      <path id="Path_1837" data-name="Path 1837" d="M177.362,28.7a2.679,2.679,0,1,0-2.824-2.531A2.68,2.68,0,0,0,177.362,28.7Z" transform="translate(-143.211 -18.663)"/>
      <path id="Path_1838" data-name="Path 1838" d="M129.529,50.015a2.68,2.68,0,1,0,2.528-2.819A2.679,2.679,0,0,0,129.529,50.015Z" transform="translate(-107.222 -37.734)"/>
    </g>
  </g>
</svg>
