<svg xmlns="http://www.w3.org/2000/svg" viewBox="678.386 416 61.884 76">
  <g id="apple" transform="translate(630.838 416)">
    <path id="Path_1100" data-name="Path 1100" d="M99.234,40.382c-.1-9.625,7.849-14.241,8.2-14.47a17.748,17.748,0,0,0-13.9-7.531c-5.918-.6-11.548,3.484-14.552,3.484s-7.631-3.4-12.539-3.307a18.594,18.594,0,0,0-15.72,9.528c-6.7,11.63-1.716,28.859,4.816,38.291,3.192,4.617,7,9.8,12,9.617,4.812-.192,6.632-3.114,12.451-3.114S87.446,76,92.539,75.9c5.179-.1,8.46-4.705,11.63-9.336a41.906,41.906,0,0,0,5.264-10.808A16.786,16.786,0,0,1,99.234,40.382ZM89.664,12.136A16.75,16.75,0,0,0,93.619,0,17.038,17.038,0,0,0,82.426,5.756C79.966,8.6,77.813,13.15,78.39,17.515,82.655,17.847,87.009,15.347,89.664,12.136Z" transform="translate(0)"/>
  </g>
</svg>
