<svg xmlns="http://www.w3.org/2000/svg" viewBox="571 477 31.458 36">
  <defs>
    <style>
      .cls-1 {
        fill: #e74856;
      }
    </style>
  </defs>
  <g id="calculator" transform="translate(-619)">
    <g id="Group_10" data-name="Group 10" transform="translate(1013 -5851)">
      <path id="Path_1125" data-name="Path 1125" class="cls-1" d="M61.625,0h-27.2A2.134,2.134,0,0,0,32.3,2.131V33.869A2.134,2.134,0,0,0,34.429,36h27.2a2.134,2.134,0,0,0,2.131-2.131V2.131A2.134,2.134,0,0,0,61.625,0ZM34,2.131a.427.427,0,0,1,.426-.426h27.2a.427.427,0,0,1,.426.426v7.39H34ZM42.216,34.3H34.429A.427.427,0,0,1,34,33.869V23.611h8.213Zm0-12.389H34V11.226h8.213ZM52.133,34.3H43.921V23.611h8.213Zm0-12.389H43.921V11.226h8.213Zm9.918,11.963a.427.427,0,0,1-.426.426H53.838V11.226h8.213Z" transform="translate(144.702 6328)"/>
      <path id="Path_1126" data-name="Path 1126" class="cls-1" d="M77.917,195.614H76.661v-1.255a.852.852,0,1,0-1.7,0v1.255H73.7a.852.852,0,1,0,0,1.7h1.255v1.255a.852.852,0,0,0,1.7,0v-1.255h1.255a.852.852,0,1,0,0-1.7Z" transform="translate(107.002 6148.1)"/>
      <path id="Path_1127" data-name="Path 1127" class="cls-1" d="M218.454,223.48h-4.3a.852.852,0,0,0,0,1.7h4.3a.852.852,0,0,0,0-1.7Z" transform="translate(-23.575 6120.233)"/>
      <path id="Path_1128" data-name="Path 1128" class="cls-1" d="M83.3,378.959l1.029-1.029a.853.853,0,0,0-1.206-1.206L82.1,377.753l-1.029-1.029a.853.853,0,0,0-1.206,1.206l1.029,1.029-1.029,1.029a.852.852,0,1,0,1.206,1.206l1.029-1.029,1.029,1.029a.852.852,0,0,0,1.206-1.206Z" transform="translate(100.714 5977.997)"/>
      <path id="Path_1129" data-name="Path 1129" class="cls-1" d="M225.382,376.725a.853.853,0,0,0-1.206,0l-3.264,3.264a.853.853,0,1,0,1.206,1.206l3.264-3.264A.853.853,0,0,0,225.382,376.725Z" transform="translate(-30.419 5977.996)"/>
      <ellipse id="Ellipse_134" data-name="Ellipse 134" class="cls-1" cx="0.727" cy="0.727" rx="0.727" ry="0.727" transform="translate(190.37 6354.597)"/>
      <ellipse id="Ellipse_135" data-name="Ellipse 135" class="cls-1" cx="0.727" cy="0.727" rx="0.727" ry="0.727" transform="translate(193.634 6357.86)"/>
      <path id="Path_1130" data-name="Path 1130" class="cls-1" d="M358.8,290.423h-4.357a.852.852,0,0,0,0,1.7H358.8a.852.852,0,1,0,0-1.7Z" transform="translate(-153.998 6057.998)"/>
      <path id="Path_1131" data-name="Path 1131" class="cls-1" d="M358.8,332.739h-4.357a.852.852,0,0,0,0,1.7H358.8a.852.852,0,1,0,0-1.7Z" transform="translate(-153.998 6018.657)"/>
    </g>
  </g>
</svg>
