<svg id="car" xmlns="http://www.w3.org/2000/svg" viewBox="414 485 48 20.922">
  <defs>
    <style>
      .cls-1 {
        fill: #e74856;
      }
    </style>
  </defs>
  <g id="Group_9" data-name="Group 9" transform="translate(-143 -6184)">
    <path id="Path_1117" data-name="Path 1117" class="cls-1" d="M95.492,299.735a1.3,1.3,0,1,0,1.3,1.3A1.3,1.3,0,0,0,95.492,299.735Z" transform="translate(471.639 6383.827)"/>
    <path id="Path_1118" data-name="Path 1118" class="cls-1" d="M44.745,149,35.6,145.337a12.75,12.75,0,0,0-4.768-.92H25.226a12.866,12.866,0,0,0-5.807,1.392l-8.287,4.214-5.945.867a6.064,6.064,0,0,0-5.188,6V160.4a.982.982,0,0,0,.982.982H5.193a5.061,5.061,0,0,0,9.879,0H32.665a5.06,5.06,0,0,0,9.878,0h4.476A.982.982,0,0,0,48,160.4v-6.585A5.161,5.161,0,0,0,44.745,149Zm-9.876-1.843,7.06,2.83H36.6l-2.345-3.054Q34.565,147.038,34.869,147.159Zm-8.722-.778h4.685c.179,0,.356,0,.533.013l2.761,3.6H26.147Zm-5.839,1.179a10.891,10.891,0,0,1,3.875-1.127v3.556H15.531Zm-14.989,5.3a3.56,3.56,0,0,1-3.066,2.53A4.126,4.126,0,0,1,5.319,152.859Zm4.812,10.517a3.1,3.1,0,1,1,3.1-3.1A3.1,3.1,0,0,1,10.131,163.376Zm27.473,0a3.1,3.1,0,1,1,3.1-3.1A3.1,3.1,0,0,1,37.6,163.376Zm8.433-3.959H42.588a5.058,5.058,0,0,0-9.968,0h-17.5a5.059,5.059,0,0,0-9.969,0H1.963v-2.05a5.521,5.521,0,0,0,5.418-4.814l4.128-.6H42.331v1.278a3.262,3.262,0,0,0,3.257,3.258h.449Zm0-4.892h-.449a1.3,1.3,0,0,1-1.294-1.295v-1.278h1.151a3.217,3.217,0,0,1,.591,1.862Z" transform="translate(557 6524.583)"/>
    <path id="Path_1119" data-name="Path 1119" class="cls-1" d="M388.527,299.735a1.3,1.3,0,1,0,1.3,1.3A1.3,1.3,0,0,0,388.527,299.735Z" transform="translate(206.077 6383.827)"/>
    <path id="Path_1120" data-name="Path 1120" class="cls-1" d="M217.775,254.133h-6.511a.982.982,0,1,0,0,1.963h6.511a.982.982,0,0,0,0-1.963Z" transform="translate(366.431 6425.153)"/>
    <path id="Path_1121" data-name="Path 1121" class="cls-1" d="M95.492,299.735a1.3,1.3,0,1,0,1.3,1.3A1.3,1.3,0,0,0,95.492,299.735Z" transform="translate(471.639 6383.827)"/>
    <path id="Path_1122" data-name="Path 1122" class="cls-1" d="M388.527,299.735a1.3,1.3,0,1,0,1.3,1.3A1.3,1.3,0,0,0,388.527,299.735Z" transform="translate(206.077 6383.827)"/>
    <path id="Path_1123" data-name="Path 1123" class="cls-1" d="M95.492,299.735a1.3,1.3,0,1,0,1.3,1.3A1.3,1.3,0,0,0,95.492,299.735Z" transform="translate(471.639 6383.827)"/>
    <path id="Path_1124" data-name="Path 1124" class="cls-1" d="M388.527,299.735a1.3,1.3,0,1,0,1.3,1.3A1.3,1.3,0,0,0,388.527,299.735Z" transform="translate(206.077 6383.827)"/>
  </g>
</svg>
