<svg xmlns="http://www.w3.org/2000/svg" viewBox="566 266 36 27.673">
  <defs>
    <style>
      .cls-1 {
        fill: #e74856;
      }
    </style>
  </defs>
  <g id="card" transform="translate(-622)">
    <path id="Path_1" data-name="Path 1" class="cls-1" d="M32.995,67.393H29.331V62.222a3.009,3.009,0,0,0-3.005-3.005H3.005A3.009,3.009,0,0,0,0,62.223V75.707a3.009,3.009,0,0,0,3.005,3.005H6.669v5.171A3.009,3.009,0,0,0,9.674,86.89h23.32A3.009,3.009,0,0,0,36,83.884V70.4A3.009,3.009,0,0,0,32.995,67.393ZM1.717,62.223a1.29,1.29,0,0,1,1.288-1.288h23.32a1.29,1.29,0,0,1,1.288,1.288v1.2H1.717ZM6.669,70.4V77H3.005a1.29,1.29,0,0,1-1.288-1.288V69.116h5.24A2.986,2.986,0,0,0,6.669,70.4Zm-4.951-3v-2.26h25.9v2.254H9.674c-.058,0-.116,0-.173.005ZM32.995,85.172H9.674a1.29,1.29,0,0,1-1.288-1.288V70.4a1.289,1.289,0,0,1,1.183-1.283h18.9a.856.856,0,0,0,.094-.005h4.429A1.29,1.29,0,0,1,34.283,70.4V83.884h0A1.29,1.29,0,0,1,32.995,85.172Z" transform="translate(1188 206.783)"/>
  </g>
</svg>
