<svg xmlns="http://www.w3.org/2000/svg" viewBox="1087 574.842 92 70.014">
  <defs>
    <style>
      .cls-1 {
        opacity: 0.6;
      }

      .cls-2 {
        fill: #232e44;
      }
    </style>
  </defs>
  <g id="envelope" class="cls-1" transform="translate(1087 517.092)">
    <g id="Group_1105" data-name="Group 1105" transform="translate(0 57.75)">
      <path id="Path_1094" data-name="Path 1094" class="cls-2" d="M80.769,57.75H11.25A11.26,11.26,0,0,0,0,69v47.513a11.26,11.26,0,0,0,11.25,11.25h69.5A11.26,11.26,0,0,0,92,116.513V69.019A11.248,11.248,0,0,0,80.769,57.75Zm6.11,58.763a6.117,6.117,0,0,1-6.11,6.111H11.25a6.117,6.117,0,0,1-6.11-6.111V69.019a6.117,6.117,0,0,1,6.11-6.11h69.5a6.117,6.117,0,0,1,6.11,6.11v47.494Z" transform="translate(0 -57.75)"/>
      <path id="Path_1095" data-name="Path 1095" class="cls-2" d="M103.161,133.582l22.5-20.178a2.574,2.574,0,0,0-3.445-3.826L91.187,137.427l-6.053-5.406c-.019-.019-.038-.038-.038-.057a3.808,3.808,0,0,0-.419-.362L60.045,109.559a2.575,2.575,0,0,0-3.426,3.845l22.767,20.349L56.713,154.978a2.58,2.58,0,0,0-.114,3.636,2.629,2.629,0,0,0,1.885.818,2.575,2.575,0,0,0,1.751-.685l23.014-21.529,6.244,5.577a2.563,2.563,0,0,0,3.426-.019l6.415-5.749,22.881,21.739a2.576,2.576,0,0,0,3.636-.1,2.58,2.58,0,0,0-.1-3.636Z" transform="translate(-45.139 -99.165)"/>
    </g>
  </g>
</svg>
