<svg xmlns="http://www.w3.org/2000/svg" viewBox="800.842 409.161 97.191 103.678">
  <g id="google-play" transform="translate(-545.159 -3400.839)">
    <path id="Path_1101" data-name="Path 1101" d="M61.151,1.658A13.164,13.164,0,0,0,48.3,1.691L95.537,45.265,111.405,29.4Z" transform="translate(1304.236 3810)"/>
    <path id="Path_1102" data-name="Path 1102" d="M17.828,30.365a12.082,12.082,0,0,0-1.814,6.33v78.7a12.122,12.122,0,0,0,1.691,6.175l47.5-47.5Z" transform="translate(1329.986 3785.783)"/>
    <path id="Path_1103" data-name="Path 1103" d="M337.246,169.629l-15.136-8.352-17.008,17L325.946,197.5l11.307-6.24a12.244,12.244,0,0,0-.006-21.635Z" transform="translate(1099.433 3681.379)"/>
    <path id="Path_1104" data-name="Path 1104" d="M94.876,267.9l-47.63,47.63a13.135,13.135,0,0,0,13.063.123l54.019-29.812Z" transform="translate(1305.078 3596.345)"/>
  </g>
</svg>
