<svg xmlns="http://www.w3.org/2000/svg" viewBox="803 258 36 36">
  <defs>
    <style>
      .cls-1 {
        fill: #0077b5;
      }

      .cls-2 {
        fill: #fff;
      }
    </style>
  </defs>
  <g id="linkedin" transform="translate(-363 -8503)">
    <circle id="Ellipse_145" data-name="Ellipse 145" class="cls-1" cx="18" cy="18" r="18" transform="translate(1166 8761)"/>
    <g id="linkedin-logo" transform="translate(1176 8761.441)">
      <path id="LinkedIn-2" data-name="LinkedIn" class="cls-2" d="M16,18.932v5.915H12.571V19.328c0-1.386-.5-2.333-1.737-2.333a1.876,1.876,0,0,0-1.76,1.255,2.347,2.347,0,0,0-.114.836v5.761H5.53s.046-9.348,0-10.316H8.96v1.462l-.023.033H8.96v-.033a3.406,3.406,0,0,1,3.091-1.7C14.308,14.288,16,15.763,16,18.932ZM1.941,9.558A1.788,1.788,0,1,0,1.9,13.123h.023a1.788,1.788,0,1,0,.023-3.565ZM.2,24.847H3.633V14.531H.2Z" transform="translate(0)"/>
    </g>
  </g>
</svg>
