<svg xmlns="http://www.w3.org/2000/svg" viewBox="1103 416 76 76">
  <g id="play-button" transform="translate(1103 416)">
    <path id="Path_753" data-name="Path 753" d="M51.846,33.22l-27.867-19A1.266,1.266,0,0,0,22,15.267v38a1.266,1.266,0,0,0,1.98,1.046l27.867-19a1.266,1.266,0,0,0,0-2.093ZM24.533,50.869v-33.2l24.352,16.6Z" transform="translate(5.867 3.733)"/>
    <path id="Path_754" data-name="Path 754" d="M38,0A38,38,0,1,0,76,38,38.043,38.043,0,0,0,38,0Zm0,73.467A35.467,35.467,0,1,1,73.467,38,35.507,35.507,0,0,1,38,73.467Z"/>
  </g>
</svg>
