<svg id="star" xmlns="http://www.w3.org/2000/svg" viewBox="420 262 36 35.464">
  <defs>
    <style>
      .cls-1 {
        fill: #e74856;
      }
    </style>
  </defs>
  <g id="Group_5" data-name="Group 5" transform="translate(-156 -6114)">
    <path id="Path_1107" data-name="Path 1107" class="cls-1" d="M60.7,17.725a2.374,2.374,0,0,0-1.316-4.049L51.5,12.531a.475.475,0,0,1-.357-.26L47.624,5.133a2.374,2.374,0,0,0-4.258,0l-3.523,7.138a.475.475,0,0,1-.358.26l-7.877,1.145a2.374,2.374,0,0,0-1.316,4.049l5.7,5.556a.475.475,0,0,1,.137.42l-1.346,7.845a2.374,2.374,0,0,0,3.445,2.5l7.045-3.7a.475.475,0,0,1,.442,0l7.045,3.7a2.374,2.374,0,0,0,3.445-2.5L54.861,23.7a.475.475,0,0,1,.137-.42Zm-7.708,6.3,1.346,7.845a.475.475,0,0,1-.689.5l-7.045-3.7a2.374,2.374,0,0,0-2.21,0l-7.045,3.7a.475.475,0,0,1-.689-.5L38,24.022a2.373,2.373,0,0,0-.683-2.1l-5.7-5.556a.475.475,0,0,1,.263-.81l7.877-1.145a2.374,2.374,0,0,0,1.788-1.3L45.07,5.974a.475.475,0,0,1,.852,0h0l3.523,7.138a2.373,2.373,0,0,0,1.787,1.3l7.877,1.145a.475.475,0,0,1,.263.81l-5.7,5.556A2.373,2.373,0,0,0,52.989,24.022Z" transform="translate(548.505 6372.19)"/>
    <path id="Path_1108" data-name="Path 1108" class="cls-1" d="M380.517,20.226a.95.95,0,0,0-1.326.21l-1.008,1.387a.95.95,0,0,0,1.537,1.116l1.008-1.387A.95.95,0,0,0,380.517,20.226Z" transform="translate(224.578 6357.097)"/>
    <path id="Path_1109" data-name="Path 1109" class="cls-1" d="M95.316,21.745l-1.008-1.387a.95.95,0,0,0-1.537,1.116l1.008,1.387a.95.95,0,1,0,1.537-1.116Z" transform="translate(489.92 6357.169)"/>
    <path id="Path_1110" data-name="Path 1110" class="cls-1" d="M3.484,298.15a.95.95,0,0,0-1.2-.61l-1.631.53a.95.95,0,1,0,.587,1.806l1.631-.53A.95.95,0,0,0,3.484,298.15Z" transform="translate(576 6099.156)"/>
    <path id="Path_1111" data-name="Path 1111" class="cls-1" d="M243.449,456.786a.95.95,0,0,0-.95.95v1.715a.95.95,0,1,0,1.9,0v-1.715A.95.95,0,0,0,243.449,456.786Z" transform="translate(350.552 5951.063)"/>
    <path id="Path_1112" data-name="Path 1112" class="cls-1" d="M464.658,298.09l-1.631-.53a.95.95,0,0,0-.587,1.806l1.631.53a.95.95,0,0,0,.587-1.806Z" transform="translate(146.686 6099.138)"/>
  </g>
</svg>
